# AST/ASF file generated using VICON BodyLanguage
# -----------------------------------------------
:version 1.10
:name VICON
:units
  mass 1.0
  length 0.45
  angle deg
:documentation
   .ast/.asf automatically generated from VICON data using
   VICON BodyBuilder and BodyLanguage model FoxedUp or BRILLIANT.MOD
:root
   order TX TY TZ RX RY RZ
   axis XYZ
   position 0 0 0  
   orientation 0 0 0 
:bonedata
  begin
     id 1 
     name lhipjoint
     direction 0.671379 -0.66392 0.329334 
     length 2.38647 
     axis 0 0 0  XYZ
  end
  begin
     id 2 
     name lfemur
     direction 0.34202 -0.939693 0  
     length 6.48179  
     axis 0 0 20  XYZ
    dof rx ry rz
    limits (-160.0 20.0)
           (-70.0 70.0)
           (-60.0 70.0)
  end
  begin
     id 3 
     name ltibia
     direction 0.34202 -0.939693 0   
     length 6.86524   
     axis 0 0 20   XYZ
    dof rx
    limits (-10.0 170.0)
  end
  begin
     id 4 
     name lfoot
     direction 0.204886 -0.562919 0.800715   
     length 1.73031   
     axis -90 7.62852e-016 20   XYZ
    dof rx rz
    limits (-45.0 90.0)
           (-70.0 20.0)
  end
  begin
     id 5 
     name ltoes
     direction 1.53548e-011 -4.21841e-011 1   
     length 0.828161   
     axis -90 7.62852e-016 20   XYZ
    dof rx
    limits (-90.0 20.0)
  end
  begin
     id 6 
     name rhipjoint
     direction -0.662732 -0.670855 0.332775   
     length 2.3618  
     axis 0 0 0  XYZ 
  end
  begin
     id 7 
     name rfemur
     direction -0.34202 -0.939693 0   
     length 6.3025   
     axis 0 0 -20   XYZ
    dof rx ry rz
    limits (-160.0 20.0)
           (-70.0 70.0)
           (-70.0 60.0)
  end
  begin
     id 8 
     name rtibia
     direction -0.34202 -0.939693 0   
     length 6.8732   
     axis 0 0 -20   XYZ
    dof rx
    limits (-10.0 170.0)
 end
 begin
     id 9 
     name rfoot
     direction -0.173856 -0.477665 0.861168   
     length 1.54784  
     axis -90 -7.62852e-016 -20   XYZ
    dof rx rz
    limits (-45.0 90.0)
           (-20.0 70.0)
  end
  begin
     id 10 
     name rtoes
     direction -1.53562e-011 -4.21802e-011 1   
     length 0.759618   
     axis -90 -7.62852e-016 -20   XYZ
    dof rx
    limits (-90.0 20.0)
  end
  begin
     id 11 
     name lowerback
     direction -0.0278357 0.999497 -0.0151789   
     length 1.97203   
     axis 0 0 0   XYZ
    dof rx ry rz
    limits (-20.0 45.0)
           (-30.0 30.0)
           (-30.0 30.0)
  end
  begin
     id 12 
     name upperback
     direction -0.00360622 0.997542 0.0699804   
     length 1.94709   
     axis 0 0 0   XYZ
    dof rx ry rz
    limits (-20.0 45.0)
           (-30.0 30.0)
           (-30.0 30.0)
  end
  begin
     id 13 
     name thorax
     direction 0.00907706 0.997048 0.0762461   
     length 1.95722   
     axis 0 0 0   XYZ
    dof rx ry rz
    limits (-20.0 45.0)
           (-30.0 30.0)
           (-30.0 30.0)
  end
  begin
     id 14 
     name lowerneck
     direction -0.0481835 0.99872 -0.0153927   
     length 1.63078   
     axis 0 0 0   XYZ
    dof rx ry rz
    limits (-20.0 45.0)
           (-30.0 30.0)
           (-30.0 30.0)
  end
  begin
     id 15 
     name upperneck
     direction 0.0859716 0.979226 -0.183644   
     length 1.62591   
     axis 0 0 0   XYZ
    dof rx ry rz
    limits (-20.0 45.0)
           (-30.0 30.0)
           (-30.0 30.0)
  end
  begin
     id 16
     name head
     direction 0.0324821 0.997629 -0.0606773  
     length 1.64811  
     axis 0 0 0   XYZ
    dof rx ry rz
    limits (-20.0 45.0)
           (-30.0 30.0)
           (-30.0 30.0)
  end
  begin
     id 17 
     name lclavicle
     direction 0.939609 0.311019 0.142835  
     length 3.70647  
     axis 0 0 0   XYZ
    dof ry rz
    limits (-20.0 10.0)
           (0.0 20.0)
  end
  begin
     id 18 
     name lhumerus
     direction 1 -4.48963e-011 -1.59838e-027   
     length 4.59207   
     axis 180 -30 -90   XYZ
    dof rx ry rz
    limits (-60.0 90.0)
           (-90.0 90.0)
           (-90.0 90.0)
  end
  begin
     id 19
     name lradius
     direction 1 -4.48957e-011 -1.3483e-026   
     length 2.98109   
     axis 180 -30 -90   XYZ
    dof rx
    limits (-10.0 170.0)
  end
  begin
     id 20
     name lwrist
     direction 1 -4.48954e-011 -3.11579e-026   
     length 1.49055   
     axis 2.00652e-014 90 90   XYZ
    dof ry
    limits (-180.0 0.0)
 end
  begin
     id 21 
     name lhand
     direction 1 -4.4911e-011 -6.23158e-026   
     length 0.480203   
     axis 3.97628e-014 90 90   XYZ
    dof rx rz
    limits (-90.0 90.0)
           (-45.0 45.0)
  end
  begin
     id 22 
     name lfingers
     direction 1 -4.48893e-011 -1.24632e-025   
     length 0.387152   
     axis 7.95256e-014 90 90   XYZ
    dof rx
    limits (0.0 90.0)
  end
  begin
     id 23
     name lthumb
     direction 0.707107 -6.35013e-011 0.707107   
     length 0.555875   
     axis -90 45 2.85299e-015   XYZ
    dof rx rz
    limits (-45.0 45.0)
           (-45.0 45.0)
  end
  begin
     id 24 
     name rclavicle
     direction -0.950396 0.30392 0.0661859   
     length 3.70894  
     axis 0 0 0   XYZ 
    dof ry rz
    limits (-10.0 20.0)
           (-20.0 0.0)
  end
  begin
     id 25 
     name rhumerus
     direction -1 -4.48957e-011 -2.96677e-027  
     length 4.76508   
     axis 180 30 90   XYZ
    dof rx ry rz
    limits (-90.0 60.0)
           (-90.0 90.0)
           (-90.0 90.0)
  end
  begin
     id 26 
     name rradius
     direction -1 -4.48974e-011 -1.44501e-026   
     length 2.78902   
     axis 180 30 90   XYZ
    dof rx
    limits (-10.0 170.0)
  end
  begin
     id 27 
     name rwrist
     direction -1 -4.48978e-011 -3.11579e-026   
     length 1.39451   
     axis 2.00652e-014 -90 -90   XYZ
    dof ry
    limits (-180.0 0.0)
  end
  begin
     id 28
     name rhand
     direction -1 -4.48956e-011 -6.23158e-026   
     length 0.721303   
     axis 3.97628e-014 -90 -90   XYZ
    dof rx rz
    limits (-90.0 90.0)
           (-45.0 45.0)
  end
  begin
     id 29
     name rfingers
     direction -1 -4.4899e-011 -1.24632e-025   
     length 0.581533   
     axis 7.95256e-014 -90 -90   XYZ
    dof rx
    limits (0.0 90.0)
  end
  begin
     id 30
     name rthumb
     direction -0.707107 -6.34911e-011 0.707107   
     length 0.834968   
     axis -90 -45 -2.85299e-015   XYZ
    dof rx rz
    limits (-45.0 45.0)
           (-45.0 45.0)
  end
:hierarchy
  begin
    root lhipjoint rhipjoint lowerback
    lhipjoint lfemur
    lfemur ltibia
    ltibia lfoot
    lfoot ltoes
    rhipjoint rfemur
    rfemur rtibia
    rtibia rfoot
    rfoot rtoes
    lowerback upperback
    upperback thorax
    thorax lowerneck lclavicle rclavicle
    lowerneck upperneck
    upperneck head
    lclavicle lhumerus
    lhumerus lradius
    lradius lwrist
    lwrist lhand lthumb
    lhand lfingers
    rclavicle rhumerus
    rhumerus rradius
    rradius rwrist
    rwrist rhand rthumb
    rhand rfingers
  end

#!OML:ASF I:\salsa\salsa 7_09\Patient 1\Session 1\dancerfemale.ASF
:FULLY-SPECIFIED
:DEGREES
1
root 20.2295 16.0545 -0.871178 -179.638 -87.324 -175.278
lowerback -2.21309 1.89048 -0.205027
upperback -4.94698 2.37668 -1.31581
thorax -3.8039 1.12054 -1.26386
lowerneck -2.9433 -3.43647 -6.60136
upperneck 9.01638 -5.03474 7.89536
head 3.52312 -2.43775 3.27006
rclavicle 4.91992e-015 -5.96354e-015
rhumerus -45.6066 -17.2705 -83.9026
rradius 61.9538
rwrist -8.08064
rhand 4.72268 45.6843
rfingers 7.12502
rthumb 30.1054 18.1162
lclavicle 4.91992e-015 -5.96354e-015
lhumerus -45.3739 17.3638 81.309
lradius 49.673
lwrist -14.0402
lhand -21.6756 44.9402
lfingers 7.12502
lthumb 4.72205 74.8676
rfemur -8.41328 0.123022 22.7429
rtibia 18.3444
rfoot -6.51129 -40.9
rtoes 47.3218
lfemur -18.5536 1.59189 -17.9954
ltibia 36.9706
lfoot -25.9176 -2.89602
ltoes -32.7715
2
root 20.229 16.0405 -0.866291 -176.724 -87.4023 -178.422
lowerback -2.2109 1.82848 -0.308554
upperback -4.72755 2.30686 -1.22847
thorax -3.58553 1.09595 -1.1105
lowerneck -3.42831 -3.38346 -6.9099
upperneck 9.23243 -4.95182 8.14863
head 3.67601 -2.38366 3.39428
rclavicle -6.06293e-015 9.14409e-015
rhumerus -44.8022 -16.9986 -84.6116
rradius 62.6939
rwrist -8.31455
rhand 4.36312 45.52
rfingers 7.12502
rthumb 29.7623 17.89
lclavicle -6.06293e-015 9.14409e-015
lhumerus -45.2301 17.6486 81.27
lradius 49.3143
lwrist -14.705
lhand -20.7206 45.7371
lfingers 7.12502
lthumb 5.64409 75.6419
rfemur -7.87753 -0.206904 22.5876
rtibia 17.8967
rfoot -6.66081 -39.9078
rtoes 47.8382
lfemur -18.3972 1.37869 -18.1567
ltibia 37.1364
lfoot -25.9618 -2.77934
ltoes -32.7883
3
root 20.228 16.0359 -0.860805 -175.088 -87.4827 -180.289
lowerback -2.19698 1.74273 -0.328559
upperback -4.54688 2.2042 -1.11588
thorax -3.41213 1.0513 -0.979196
lowerneck -3.69513 -3.34034 -7.26705
upperneck 9.2814 -4.88076 8.4219
head 3.74452 -2.34176 3.53687
rclavicle 2.01269e-015 -5.96354e-015
rhumerus -44.067 -16.5984 -85.3268
rradius 63.3293
rwrist -8.50026
rhand 3.87157 45.7995
rfingers 7.12502
rthumb 29.2931 18.0866
lclavicle 2.01269e-015 -5.96354e-015
lhumerus -45.2174 18.0621 81.0812
lradius 48.9887
lwrist -15.3009
lhand -19.2674 46.2682
lfingers 7.12502
lthumb 7.04703 76.1309
rfemur -7.52849 -0.511602 22.4908
rtibia 17.7232
rfoot -6.70353 -39.4825
rtoes 48.0169
lfemur -18.2125 1.03115 -18.2537
ltibia 37.2512
lfoot -26.0067 -2.52092
ltoes -33.0149
4
root 20.2268 16.0315 -0.855042 -175.914 -87.5441 -179.76
lowerback -1.82198 1.62373 -0.0682516
upperback -4.53891 2.04749 -1.09306
thorax -3.60879 0.965285 -1.11148
lowerneck -3.84796 -3.27944 -7.54187
upperneck 9.42456 -4.80811 8.70008
head 3.8197 -2.29981 3.66989
rclavicle 2.25621e-014 -6.75868e-015
rhumerus -43.6539 -16.0787 -86.2061
rradius 63.9731
rwrist -8.66844
rhand 3.58184 46.1547
rfingers 7.12502
rthumb 29.0164 18.3937
lclavicle 2.25621e-014 -6.75868e-015
lhumerus -45.5731 18.4727 80.4875
lradius 48.7255
lwrist -15.6806
lhand -17.8167 46.6643
lfingers 7.12502
lthumb 8.44727 76.4754
rfemur -7.11386 -0.756897 22.502
rtibia 17.5338
rfoot -6.63761 -39.3128
rtoes 48.0515
lfemur -17.9333 0.614758 -18.2308
ltibia 37.3335
lfoot -26.067 -2.19693
ltoes -33.0574
5
root 20.227 16.0232 -0.836663 -176.908 -88.1283 -179.371
lowerback -1.07284 1.3178 0.438311
upperback -4.46442 1.64874 -1.13546
thorax -3.94614 0.749323 -1.45142
lowerneck -4.15085 -3.18822 -8.27599
upperneck 9.79366 -4.7301 9.55468
head 4.00987 -2.24296 4.05825
rclavicle 1.06847e-014 -2.38542e-015
rhumerus -43.1882 -15.4025 -87.1484
rradius 64.4256
rwrist -8.83135
rhand 3.42696 46.3932
rfingers 7.12502
rthumb 28.8685 18.6069
lclavicle 1.06847e-014 -2.38542e-015
lhumerus -45.9868 18.8358 79.7692
lradius 48.4119
lwrist -15.7967
lhand -15.5162 46.7258
lfingers 7.12502
lthumb 10.6668 76.435
rfemur -6.34377 -1.34164 22.4492
rtibia 17.4249
rfoot -7.01845 -39.5072
rtoes 47.8558
lfemur -17.3822 -0.289329 -18.2528
ltibia 37.3594
lfoot -26.0953 -1.88969
ltoes -33.0753
6
root 20.2247 16.0262 -0.840983 -179.45 -87.8564 -176.848
lowerback -0.951501 1.29507 0.635834
upperback -4.5574 1.61943 -1.11294
thorax -4.10784 0.725442 -1.54276
lowerneck -4.36811 -3.06634 -8.73071
upperneck 10.0353 -4.60312 10.1754
head 4.13 -2.16393 4.33423
rclavicle -1.19519e-014 5.1684e-015
rhumerus -42.5847 -14.7926 -88.0788
rradius 64.667
rwrist -8.88091
rhand 3.33621 46.5368
rfingers 7.12502
rthumb 28.7818 18.7357
lclavicle -1.19519e-014 5.1684e-015
lhumerus -46.3706 19.0313 79.0374
lradius 48.0191
lwrist -15.7093
lhand -13.0163 47.1079
lfingers 7.12502
lthumb 13.0775 76.6779
rfemur -6.30488 -1.13517 22.5177
rtibia 17.3903
rfoot -7.36877 -39.7796
rtoes 47.4725
lfemur -17.2922 -0.323439 -18.14
ltibia 37.3496
lfoot -26.1995 -1.60312
ltoes -33.1241
